<svg width="128" height="128" viewBox="0 0 128 128" fill="none" xmlns="http://www.w3.org/2000/svg">
<path d="M75.8997 106.84L76.7234 108.663L75.8997 106.84ZM64.9355 111.796L65.7592 113.618H65.7592L64.9355 111.796ZM63.0646 111.796L62.2409 113.618H62.2409L63.0646 111.796ZM52.1005 106.84L51.2767 108.663H51.2767L52.1005 106.84ZM76.048 87.7058L74.7557 89.2322L76.048 87.7058ZM59.6069 91.4378C58.5024 91.4378 57.6069 92.3332 57.6069 93.4378C57.6069 94.5424 58.5024 95.4378 59.6069 95.4378V91.4378ZM56.3666 99.4901C57.4711 99.4901 58.3666 98.5946 58.3666 97.4901C58.3666 96.3855 57.4711 95.4901 56.3666 95.4901V99.4901ZM64.1974 99.5387C63.0929 99.5387 62.1974 100.434 62.1974 101.539C62.1974 102.643 63.0929 103.539 64.1974 103.539V99.5387ZM65.5832 38.962C66.6878 38.962 67.5832 38.0666 67.5832 36.962C67.5832 35.8574 66.6878 34.962 65.5832 34.962V38.962ZM63.8691 85.6609C63.8691 86.7654 64.7645 87.6609 65.8691 87.6609C66.9736 87.6609 67.8691 86.7654 67.8691 85.6609H63.8691ZM65.8691 64.0761L65.8592 62.0761L65.8691 64.0761ZM65.8691 58.4261L65.8592 60.426L65.8691 58.4261ZM65.8691 53.3441L65.8832 55.3441L65.8691 53.3441ZM65.8691 74.8085H67.8691C67.8691 73.7039 66.9736 72.8085 65.8691 72.8085V74.8085ZM38.171 43.829C38.171 29.564 49.7351 17.9999 64.0001 17.9999V13.9999C47.5259 13.9999 34.171 27.3548 34.171 43.829H38.171ZM64.0001 17.9999C78.2651 17.9999 89.8291 29.564 89.8291 43.829H93.8291C93.8291 27.3548 80.4742 13.9999 64.0001 13.9999V17.9999ZM48.2411 69.1903C48.2411 63.8615 45.3215 59.5975 42.885 55.8338C40.3417 51.9053 38.171 48.342 38.171 43.829H34.171C34.171 49.6701 37.0354 54.1585 39.5272 58.0076C42.1257 62.0215 44.2411 65.2612 44.2411 69.1903H48.2411ZM89.8291 43.829C89.8291 48.3493 87.6507 51.9998 85.1099 55.9664C82.6872 59.7486 79.7589 64.025 79.7589 69.1903H83.7589C83.7589 65.4295 85.8657 62.2023 88.4781 58.1239C90.9725 54.2298 93.8291 49.6628 93.8291 43.829H89.8291ZM75.0759 105.018L64.1118 109.974L65.7592 113.618L76.7234 108.663L75.0759 105.018ZM63.8884 109.974L52.9242 105.018L51.2767 108.663L62.2409 113.618L63.8884 109.974ZM64.1118 109.974C64.0339 110.009 63.9662 110.009 63.8883 109.974L62.2409 113.618C63.3661 114.127 64.634 114.127 65.7592 113.618L64.1118 109.974ZM48.4625 104.063C48.4625 105.946 49.4602 107.842 51.2767 108.663L52.9242 105.018C52.7653 104.946 52.4625 104.637 52.4625 104.063H48.4625ZM75.5376 104.063C75.5376 104.637 75.2348 104.946 75.0759 105.018L76.7234 108.663C78.5399 107.842 79.5376 105.946 79.5376 104.063H75.5376ZM73.3324 84.7115H54.6677V88.7115H73.3324V84.7115ZM73.3324 88.7115C73.8769 88.7115 74.3707 88.9063 74.7557 89.2322L77.3403 86.1793C76.26 85.2648 74.8583 84.7115 73.3324 84.7115V88.7115ZM74.7557 89.2322C75.2372 89.6398 75.5376 90.2422 75.5376 90.9167H79.5376C79.5376 89.0166 78.6811 87.3145 77.3403 86.1793L74.7557 89.2322ZM79.7589 69.1903C79.7589 77.9376 77.5487 83.237 74.6013 86.3249L77.4947 89.0867C81.3857 85.0103 83.7589 78.5697 83.7589 69.1903H79.7589ZM52.4625 90.9167C52.4625 90.2423 52.7628 89.64 53.2441 89.2324L50.6591 86.1799C49.3187 87.3151 48.4625 89.0169 48.4625 90.9167H52.4625ZM53.2441 89.2324C53.6292 88.9063 54.1231 88.7115 54.6677 88.7115V84.7115C53.1415 84.7115 51.7395 85.265 50.6591 86.1799L53.2441 89.2324ZM53.3984 86.3253C50.4512 83.2375 48.2411 77.9381 48.2411 69.1903H44.2411C44.2411 78.57 46.6141 85.0107 50.5049 89.0871L53.3984 86.3253ZM75.5376 90.9167V93.4378H79.5376V90.9167H75.5376ZM77.5376 91.4378H59.6069V95.4378H77.5376V91.4378ZM52.4625 104.063V97.4901H48.4625V104.063H52.4625ZM52.4625 97.4901V90.9167H48.4625V97.4901H52.4625ZM50.4625 99.4901H56.3666V95.4901H50.4625V99.4901ZM75.5376 93.4378V101.539H79.5376V93.4378H75.5376ZM75.5376 101.539V104.063H79.5376V101.539H75.5376ZM77.5376 99.5387H64.1974V103.539H77.5376V99.5387ZM54.6272 45.1536C54.6272 43.8187 55.4873 42.3184 57.4907 41.0517C59.4689 39.801 62.3247 38.962 65.5832 38.962V34.962C61.6863 34.962 58.0641 35.9568 55.3531 37.6708C52.6674 39.3689 50.6272 41.9643 50.6272 45.1536H54.6272ZM65.5832 72.8085C62.3247 72.8085 59.4689 71.9695 57.4907 70.7188C55.4873 69.4521 54.6272 67.9517 54.6272 66.6169H50.6272C50.6272 69.8062 52.6674 72.4016 55.3531 74.0997C58.0641 75.8137 61.6863 76.8085 65.5832 76.8085V72.8085ZM65.5832 49.6937C67.4741 49.6937 69.7608 49.8349 71.5201 50.2165C72.4168 50.4111 73.0234 50.6367 73.3577 50.839C73.7063 51.0498 73.3729 50.9746 73.3729 50.5194H77.3729C77.3729 48.9382 76.3045 47.9467 75.4283 47.4166C74.5378 46.8779 73.4301 46.5378 72.368 46.3075C70.2097 45.8393 67.6016 45.6937 65.5832 45.6937V49.6937ZM54.6272 55.8852C54.6272 54.6705 55.3309 53.3312 56.9714 52.1358L54.6157 48.903C52.3112 50.5823 50.6272 52.9952 50.6272 55.8852H54.6272ZM56.9714 52.1358C58.9438 50.6985 62.015 49.6937 65.5832 49.6937V45.6937C61.3328 45.6937 57.3942 46.8783 54.6157 48.903L56.9714 52.1358ZM65.5832 51.3451C62.015 51.3451 58.9438 50.3403 56.9714 48.903L54.6157 52.1358C57.3942 54.1605 61.3328 55.3451 65.5832 55.3451V51.3451ZM56.9714 48.903C55.3309 47.7076 54.6272 46.3683 54.6272 45.1536H50.6272C50.6272 48.0436 52.3112 50.4565 54.6157 52.1358L56.9714 48.903ZM54.6272 66.6169C54.6272 65.4022 55.3309 64.0629 56.9714 62.8675L54.6157 59.6347C52.3112 61.314 50.6272 63.7269 50.6272 66.6169H54.6272ZM56.9714 62.8675C58.9438 61.4302 62.015 60.4254 65.5832 60.4254V56.4254C61.3328 56.4254 57.3942 57.61 54.6157 59.6347L56.9714 62.8675ZM65.5832 62.0768C62.015 62.0768 58.9438 61.072 56.9714 59.6347L54.6157 62.8675C57.3942 64.8922 61.3328 66.0768 65.5832 66.0768V62.0768ZM56.9714 59.6347C55.3309 58.4393 54.6272 57.1 54.6272 55.8852H50.6272C50.6272 58.7753 52.3112 61.1882 54.6157 62.8675L56.9714 59.6347ZM73.3729 61.2511C73.3729 60.9106 73.6219 60.8398 73.3593 61.0077C73.0691 61.1933 72.5183 61.4085 71.6636 61.5926C69.9856 61.9541 67.7792 62.0666 65.8592 62.0761L65.8789 66.0761C67.8623 66.0663 70.4079 65.9549 72.5059 65.503C73.5393 65.2804 74.6325 64.9415 75.5144 64.3776C76.4239 63.7959 77.3729 62.7801 77.3729 61.2511H73.3729ZM65.8592 62.0761C65.7663 62.0766 65.6742 62.0768 65.5832 62.0768V66.0768C65.6805 66.0768 65.7792 66.0766 65.8789 66.0761L65.8592 62.0761ZM65.5832 60.4254C65.6742 60.4254 65.7663 60.4256 65.8592 60.426L65.8789 56.4261C65.7792 56.4256 65.6805 56.4254 65.5832 56.4254V60.4254ZM65.8592 60.426C67.7792 60.4355 69.9856 60.548 71.6636 60.9095C72.5183 61.0936 73.0691 61.3088 73.3593 61.4944C73.6219 61.6623 73.3729 61.5916 73.3729 61.2511H77.3729C77.3729 59.722 76.4239 58.7062 75.5144 58.1246C74.6325 57.5607 73.5393 57.2218 72.5059 56.9992C70.4079 56.5473 67.8623 56.4359 65.8789 56.4261L65.8592 60.426ZM73.3729 50.5194C73.3729 50.0767 73.6915 49.9918 73.3781 50.1874C73.0708 50.3791 72.5017 50.6004 71.6426 50.7951C69.9575 51.1771 67.7451 51.3308 65.8549 51.3442L65.8832 55.3441C67.8964 55.3298 70.4359 55.1701 72.5269 54.6961C73.5559 54.4629 74.6308 54.1205 75.4956 53.5809C76.3543 53.0451 77.3729 52.061 77.3729 50.5194H73.3729ZM65.8549 51.3442C65.7633 51.3448 65.6727 51.3451 65.5832 51.3451V55.3451C65.6821 55.3451 65.7822 55.3448 65.8832 55.3441L65.8549 51.3442ZM67.8691 85.6609V74.8085H63.8691V85.6609H67.8691ZM65.5832 76.8085H65.8691V72.8085H65.5832V76.8085Z" fill="#FCE308"/>
</svg>
