<svg width="24" height="24" viewBox="0 0 24 24" fill="none" xmlns="http://www.w3.org/2000/svg">
<path fill-rule="evenodd" clip-rule="evenodd" d="M2 7C2 4.23858 4.23858 2 7 2H17C19.7614 2 22 4.23858 22 7V17C22 19.7614 19.7614 22 17 22H7C4.23858 22 2 19.7614 2 17V7ZM7 4C5.34315 4 4 5.34315 4 7V17C4 18.6569 5.34315 20 7 20H17C18.6569 20 20 18.6569 20 17V7C20 5.34315 18.6569 4 17 4H7Z" fill="white"/>
<path fill-rule="evenodd" clip-rule="evenodd" d="M12 6.75732C12.5522 6.75732 13 7.20504 13 7.75732V11H16.2426C16.7949 11 17.2426 11.4477 17.2426 12C17.2426 12.5522 16.7949 13 16.2426 13H13V16.2426C13 16.7949 12.5522 17.2426 12 17.2426C11.4477 17.2426 11 16.7949 11 16.2426V13H7.75732C7.20504 13 6.75732 12.5522 6.75732 12C6.75732 11.4477 7.20504 11 7.75732 11H11V7.75732C11 7.20504 11.4477 6.75732 12 6.75732Z" fill="white"/>
</svg>
