<svg width="24" height="24" viewBox="0 0 24 24" fill="none" xmlns="http://www.w3.org/2000/svg">
<path fill-rule="evenodd" clip-rule="evenodd" d="M9 4C7.34315 4 6 5.34315 6 7V17C6 18.6569 7.34315 20 9 20H15C16.6569 20 18 18.6569 18 17V10H15C13.3431 10 12 8.65685 12 7V4H9ZM14 5.41421L16.5858 8H15C14.4477 8 14 7.55228 14 7V5.41421ZM4 7C4 4.23858 6.23858 2 9 2H13C13.2652 2 13.5196 2.10536 13.7071 2.29289L19.7071 8.29289C19.8946 8.48043 20 8.73478 20 9V17C20 19.7614 17.7614 22 15 22H9C6.23858 22 4 19.7614 4 17V7ZM12 10.5C12.5523 10.5 13 10.9477 13 11.5V13H14.5C15.0523 13 15.5 13.4477 15.5 14C15.5 14.5523 15.0523 15 14.5 15H13V16.5C13 17.0523 12.5523 17.5 12 17.5C11.4477 17.5 11 17.0523 11 16.5V15H9.5C8.94772 15 8.5 14.5523 8.5 14C8.5 13.4477 8.94772 13 9.5 13H11V11.5C11 10.9477 11.4477 10.5 12 10.5Z" fill="white"/>
</svg>
