<svg width="24" height="24" viewBox="0 0 24 24" fill="none" xmlns="http://www.w3.org/2000/svg">
<path fill-rule="evenodd" clip-rule="evenodd" d="M9 4C7.34315 4 6 5.34315 6 7V17C6 18.6569 7.34315 20 9 20H15C16.6569 20 18 18.6569 18 17V10H15C13.3431 10 12 8.65685 12 7V4H9ZM14 5.41421L16.5858 8H15C14.4477 8 14 7.55228 14 7V5.41421ZM4 7C4 4.23858 6.23858 2 9 2H13C13.2652 2 13.5196 2.10536 13.7071 2.29289L19.7071 8.29289C19.8946 8.48043 20 8.73478 20 9V17C20 19.7614 17.7614 22 15 22H9C6.23858 22 4 19.7614 4 17V7ZM12 11C12.5523 11 13 11.4477 13 12V14.5858L13.2929 14.2929C13.6834 13.9024 14.3166 13.9024 14.7071 14.2929C15.0976 14.6834 15.0976 15.3166 14.7071 15.7071L12.7071 17.7071C12.3166 18.0976 11.6834 18.0976 11.2929 17.7071L9.29289 15.7071C8.90237 15.3166 8.90237 14.6834 9.29289 14.2929C9.68342 13.9024 10.3166 13.9024 10.7071 14.2929L11 14.5858L11 12C11 11.4477 11.4477 11 12 11Z" fill="#039D00"/>
</svg>
