<svg width="24" height="24" viewBox="0 0 24 24" fill="none" xmlns="http://www.w3.org/2000/svg">
<path fill-rule="evenodd" clip-rule="evenodd" d="M4 7C4 4.23858 6.23858 2 9 2H13C13.2652 2 13.5196 2.10536 13.7071 2.29289L19.7071 8.29289C19.8946 8.48043 20 8.73478 20 9V17C20 19.7614 17.7614 22 15 22H13C12.4477 22 12 21.5523 12 21C12 20.4477 12.4477 20 13 20H15C16.6569 20 18 18.6569 18 17V10H15C13.3431 10 12 8.65685 12 7V4H9C7.34315 4 6 5.34315 6 7V12C6 12.5523 5.55228 13 5 13C4.44772 13 4 12.5523 4 12V7ZM14 5.41421L16.5858 8H15C14.4477 8 14 7.55228 14 7V5.41421ZM13.261 12.739C12.2757 11.7537 10.6782 11.7537 9.69294 12.739C8.70764 13.7243 8.70764 15.3218 9.69294 16.3071C10.6782 17.2924 12.2757 17.2924 13.261 16.3071C14.2463 15.3218 14.2463 13.7243 13.261 12.739ZM8.27873 11.3248C10.0451 9.55841 12.9089 9.55841 14.6752 11.3248C16.4416 13.0911 16.4416 15.9549 14.6752 17.7213C13.1519 19.2446 10.8122 19.4542 9.06427 18.3499L5.70711 21.7071C5.31658 22.0976 4.68342 22.0976 4.29289 21.7071C3.90237 21.3166 3.90237 20.6834 4.29289 20.2929L7.65006 16.9357C6.54581 15.1878 6.75537 12.8481 8.27873 11.3248Z" fill="#FCE308"/>
</svg>
