<svg width="24" height="24" viewBox="0 0 24 24" fill="none" xmlns="http://www.w3.org/2000/svg">
<path fill-rule="evenodd" clip-rule="evenodd" d="M13.2733 2.03802C13.6797 2.15349 13.9697 2.51188 13.9978 2.93342L14.4356 9.49994H18.5C18.8746 9.49994 19.2178 9.70929 19.3892 10.0424C19.5606 10.3754 19.5315 10.7764 19.3137 11.0812L11.8137 21.5812C11.5682 21.925 11.1331 22.0773 10.7267 21.9619C10.3203 21.8464 10.0303 21.488 10.0022 21.0665L9.56445 14.4999H5.5C5.12542 14.4999 4.78224 14.2906 4.61084 13.9575C4.43943 13.6245 4.46855 13.2235 4.68627 12.9187L12.1863 2.4187C12.4318 2.07492 12.8669 1.92255 13.2733 2.03802ZM7.44319 12.4999H10.5C11.0265 12.4999 11.4628 12.9081 11.4978 13.4334L11.8118 18.143L16.5568 11.4999H13.5C12.9735 11.4999 12.5372 11.0918 12.5022 10.5665L12.1882 5.85687L7.44319 12.4999Z" fill="#FCE308"/>
</svg>
