<svg width="60" height="100" viewBox="0 0 60 100" fill="none" xmlns="http://www.w3.org/2000/svg">
<path d="M41.8997 92.8404L42.7234 94.6629L41.8997 92.8404ZM30.9355 97.796L31.7592 99.6185H31.7592L30.9355 97.796ZM29.0646 97.796L28.2409 99.6185H28.2409L29.0646 97.796ZM18.1005 92.8404L17.2767 94.6629H17.2767L18.1005 92.8404ZM42.048 73.7058L40.7557 75.2322L42.048 73.7058ZM25.6069 77.4378C24.5024 77.4378 23.6069 78.3332 23.6069 79.4378C23.6069 80.5424 24.5024 81.4378 25.6069 81.4378V77.4378ZM22.3666 85.4901C23.4711 85.4901 24.3666 84.5946 24.3666 83.4901C24.3666 82.3855 23.4711 81.4901 22.3666 81.4901V85.4901ZM30.1974 85.5387C29.0929 85.5387 28.1974 86.4341 28.1974 87.5387C28.1974 88.6433 29.0929 89.5387 30.1974 89.5387V85.5387ZM31.5832 24.962C32.6878 24.962 33.5832 24.0666 33.5832 22.962C33.5832 21.8574 32.6878 20.962 31.5832 20.962V24.962ZM29.8691 71.6609C29.8691 72.7654 30.7645 73.6609 31.8691 73.6609C32.9736 73.6609 33.8691 72.7654 33.8691 71.6609H29.8691ZM31.8691 50.0761L31.8592 48.0761L31.8691 50.0761ZM31.8691 44.4261L31.8592 46.426L31.8691 44.4261ZM31.8691 39.3441L31.8832 41.3441L31.8691 39.3441ZM31.8691 60.8085H33.8691C33.8691 59.7039 32.9736 58.8085 31.8691 58.8085V60.8085ZM4.17102 29.829C4.17102 15.564 15.7351 3.99992 30.0001 3.99992V-7.99894e-05C13.5259 -7.99894e-05 0.171021 13.3548 0.171021 29.829H4.17102ZM30.0001 3.99992C44.2651 3.99992 55.8291 15.564 55.8291 29.829H59.8291C59.8291 13.3548 46.4742 -7.99894e-05 30.0001 -7.99894e-05V3.99992ZM14.2411 55.1903C14.2411 49.8615 11.3215 45.5975 8.88497 41.8338C6.34173 37.9053 4.17102 34.342 4.17102 29.829H0.171021C0.171021 35.6701 3.03536 40.1585 5.52718 44.0076C8.12572 48.0215 10.2411 51.2612 10.2411 55.1903H14.2411ZM55.8291 29.829C55.8291 34.3493 53.6507 37.9998 51.1099 41.9664C48.6872 45.7486 45.7589 50.025 45.7589 55.1903H49.7589C49.7589 51.4295 51.8657 48.2023 54.4781 44.1239C56.9725 40.2298 59.8291 35.6628 59.8291 29.829H55.8291ZM41.0759 91.0179L30.1118 95.9735L31.7592 99.6185L42.7234 94.6629L41.0759 91.0179ZM29.8884 95.9735L18.9242 91.0179L17.2767 94.6629L28.2409 99.6185L29.8884 95.9735ZM30.1118 95.9735C30.0339 96.0087 29.9662 96.0087 29.8883 95.9735L28.2409 99.6185C29.3661 100.127 30.634 100.127 31.7592 99.6185L30.1118 95.9735ZM14.4625 90.0634C14.4625 91.9458 15.4602 93.8419 17.2767 94.6629L18.9242 91.0179C18.7653 90.9461 18.4625 90.6374 18.4625 90.0634H14.4625ZM41.5376 90.0634C41.5376 90.6374 41.2348 90.9461 41.0759 91.0179L42.7234 94.6629C44.5399 93.8419 45.5376 91.9457 45.5376 90.0634H41.5376ZM39.3324 70.7115H20.6677V74.7115H39.3324V70.7115ZM39.3324 74.7115C39.8769 74.7115 40.3707 74.9063 40.7557 75.2322L43.3403 72.1793C42.26 71.2648 40.8583 70.7115 39.3324 70.7115V74.7115ZM40.7557 75.2322C41.2372 75.6398 41.5376 76.2422 41.5376 76.9167H45.5376C45.5376 75.0166 44.6811 73.3145 43.3403 72.1793L40.7557 75.2322ZM45.7589 55.1903C45.7589 63.9376 43.5487 69.237 40.6013 72.3249L43.4947 75.0867C47.3857 71.0103 49.7589 64.5697 49.7589 55.1903H45.7589ZM18.4625 76.9167C18.4625 76.2423 18.7628 75.64 19.2441 75.2324L16.6591 72.1799C15.3187 73.3151 14.4625 75.0169 14.4625 76.9167H18.4625ZM19.2441 75.2324C19.6292 74.9063 20.1231 74.7115 20.6677 74.7115V70.7115C19.1415 70.7115 17.7395 71.265 16.6591 72.1799L19.2441 75.2324ZM19.3984 72.3253C16.4512 69.2375 14.2411 63.9381 14.2411 55.1903H10.2411C10.2411 64.57 12.6141 71.0107 16.5049 75.0871L19.3984 72.3253ZM41.5376 76.9167V79.4378H45.5376V76.9167H41.5376ZM43.5376 77.4378H25.6069V81.4378H43.5376V77.4378ZM18.4625 90.0634V83.4901H14.4625V90.0634H18.4625ZM18.4625 83.4901V76.9167H14.4625V83.4901H18.4625ZM16.4625 85.4901H22.3666V81.4901H16.4625V85.4901ZM41.5376 79.4378V87.5387H45.5376V79.4378H41.5376ZM41.5376 87.5387V90.0634H45.5376V87.5387H41.5376ZM43.5376 85.5387H30.1974V89.5387H43.5376V85.5387ZM20.6272 31.1536C20.6272 29.8187 21.4873 28.3184 23.4907 27.0517C25.4689 25.801 28.3247 24.962 31.5832 24.962V20.962C27.6863 20.962 24.0641 21.9568 21.3531 23.6708C18.6674 25.3689 16.6272 27.9643 16.6272 31.1536H20.6272ZM31.5832 58.8085C28.3247 58.8085 25.4689 57.9695 23.4907 56.7188C21.4873 55.4521 20.6272 53.9517 20.6272 52.6169H16.6272C16.6272 55.8062 18.6674 58.4016 21.3531 60.0997C24.0641 61.8137 27.6863 62.8085 31.5832 62.8085V58.8085ZM31.5832 35.6937C33.4741 35.6937 35.7608 35.8349 37.5201 36.2165C38.4168 36.4111 39.0234 36.6367 39.3577 36.839C39.7063 37.0498 39.3729 36.9746 39.3729 36.5194H43.3729C43.3729 34.9382 42.3045 33.9467 41.4283 33.4166C40.5378 32.8779 39.4301 32.5378 38.368 32.3075C36.2097 31.8393 33.6016 31.6937 31.5832 31.6937V35.6937ZM20.6272 41.8852C20.6272 40.6705 21.3309 39.3312 22.9714 38.1358L20.6157 34.903C18.3112 36.5823 16.6272 38.9952 16.6272 41.8852H20.6272ZM22.9714 38.1358C24.9438 36.6985 28.015 35.6937 31.5832 35.6937V31.6937C27.3328 31.6937 23.3942 32.8783 20.6157 34.903L22.9714 38.1358ZM31.5832 37.3451C28.015 37.3451 24.9438 36.3403 22.9714 34.903L20.6157 38.1358C23.3942 40.1605 27.3328 41.3451 31.5832 41.3451V37.3451ZM22.9714 34.903C21.3309 33.7076 20.6272 32.3683 20.6272 31.1536H16.6272C16.6272 34.0436 18.3112 36.4565 20.6157 38.1358L22.9714 34.903ZM20.6272 52.6169C20.6272 51.4022 21.3309 50.0629 22.9714 48.8675L20.6157 45.6347C18.3112 47.314 16.6272 49.7269 16.6272 52.6169H20.6272ZM22.9714 48.8675C24.9438 47.4302 28.015 46.4254 31.5832 46.4254V42.4254C27.3328 42.4254 23.3942 43.61 20.6157 45.6347L22.9714 48.8675ZM31.5832 48.0768C28.015 48.0768 24.9438 47.072 22.9714 45.6347L20.6157 48.8675C23.3942 50.8922 27.3328 52.0768 31.5832 52.0768V48.0768ZM22.9714 45.6347C21.3309 44.4393 20.6272 43.1 20.6272 41.8852H16.6272C16.6272 44.7753 18.3112 47.1882 20.6157 48.8675L22.9714 45.6347ZM39.3729 47.2511C39.3729 46.9106 39.6219 46.8398 39.3593 47.0077C39.0691 47.1933 38.5183 47.4085 37.6636 47.5926C35.9856 47.9541 33.7792 48.0666 31.8592 48.0761L31.8789 52.0761C33.8623 52.0663 36.4079 51.9549 38.5059 51.503C39.5393 51.2804 40.6325 50.9415 41.5144 50.3776C42.4239 49.7959 43.3729 48.7801 43.3729 47.2511H39.3729ZM31.8592 48.0761C31.7663 48.0766 31.6742 48.0768 31.5832 48.0768V52.0768C31.6805 52.0768 31.7792 52.0766 31.8789 52.0761L31.8592 48.0761ZM31.5832 46.4254C31.6742 46.4254 31.7663 46.4256 31.8592 46.426L31.8789 42.4261C31.7792 42.4256 31.6805 42.4254 31.5832 42.4254V46.4254ZM31.8592 46.426C33.7792 46.4355 35.9856 46.548 37.6636 46.9095C38.5183 47.0936 39.0691 47.3088 39.3593 47.4944C39.6219 47.6623 39.3729 47.5916 39.3729 47.2511H43.3729C43.3729 45.722 42.4239 44.7062 41.5144 44.1246C40.6325 43.5607 39.5393 43.2218 38.5059 42.9992C36.4079 42.5473 33.8623 42.4359 31.8789 42.4261L31.8592 46.426ZM39.3729 36.5194C39.3729 36.0767 39.6915 35.9918 39.3781 36.1874C39.0708 36.3791 38.5017 36.6004 37.6426 36.7951C35.9575 37.1771 33.7451 37.3308 31.8549 37.3442L31.8832 41.3441C33.8964 41.3298 36.4359 41.1701 38.5269 40.6961C39.5559 40.4629 40.6308 40.1205 41.4956 39.5809C42.3543 39.0451 43.3729 38.061 43.3729 36.5194H39.3729ZM31.8549 37.3442C31.7633 37.3448 31.6727 37.3451 31.5832 37.3451V41.3451C31.6821 41.3451 31.7822 41.3448 31.8832 41.3441L31.8549 37.3442ZM33.8691 71.6609V60.8085H29.8691V71.6609H33.8691ZM31.5832 62.8085H31.8691V58.8085H31.5832V62.8085Z" fill="#FCE308"/>
</svg>
